<?xml version="1.0" standalone="no"?>
<!DOCTYPE svg PUBLIC "-//W3C//DTD SVG 20010904//EN"
 "http://www.w3.org/TR/2001/REC-SVG-20010904/DTD/svg10.dtd">
<svg version="1.0" xmlns="http://www.w3.org/2000/svg"
 width="800.000000pt" height="800.000000pt" viewBox="0 0 800.000000 800.000000"
 preserveAspectRatio="xMidYMid meet">

<g transform="translate(0.000000,800.000000) scale(0.100000,-0.100000)"
fill="#000000" stroke="none">
<path d="M2780 7320 c-910 -41 -1327 -168 -1646 -501 -302 -317 -417 -729
-454 -1634 -13 -324 -13 -2046 0 -2370 38 -937 161 -1351 494 -1673 274 -265
631 -389 1271 -441 316 -26 713 -33 1740 -28 661 3 1122 9 1225 16 758 54
1124 171 1415 452 335 325 457 738 495 1684 13 322 13 2037 0 2350 -39 949
-160 1359 -495 1684 -290 281 -646 395 -1410 452 -181 14 -2360 21 -2635 9z
m3208 -2510 l2 -1265 -532 -532 -533 -533 -400 0 -400 0 -275 -275 -275 -275
-262 0 -263 0 0 275 0 275 -507 2 -508 3 -3 1474 c-1 977 1 1478 8 1485 5 5
10 18 10 27 0 9 7 22 15 29 8 7 15 25 15 41 0 16 5 29 10 29 6 0 10 9 10 19 0
11 5 23 10 26 6 3 10 19 10 35 0 16 4 31 9 35 15 9 41 66 41 90 0 13 7 28 15
35 8 7 15 21 15 31 0 11 5 19 10 19 6 0 10 15 10 34 0 21 6 36 15 40 8 3 15
14 15 25 0 11 5 23 10 26 6 3 10 18 10 32 0 15 7 35 17 45 16 17 84 18 1857
16 l1841 -3 3 -1265z"/>
<path d="M2642 4403 l3 -1308 408 -3 407 -2 0 -275 c0 -151 3 -275 8 -275 4 0
131 124 282 275 l275 275 498 0 499 0 299 299 299 299 0 1011 0 1011 -1490 0
-1490 0 2 -1307z m1328 72 l0 -536 -157 3 -158 3 -3 520 c-1 286 0 526 3 533
3 9 45 12 160 12 l155 0 0 -535z m995 0 l0 -530 -155 0 -155 0 -3 533 -2 533
157 -3 158 -3 0 -530z"/>
</g>
</svg>
