<?xml version="1.0" standalone="no"?>
<!DOCTYPE svg PUBLIC "-//W3C//DTD SVG 20010904//EN"
 "http://www.w3.org/TR/2001/REC-SVG-20010904/DTD/svg10.dtd">
<svg version="1.0" xmlns="http://www.w3.org/2000/svg"
 width="800.000000pt" height="800.000000pt" viewBox="0 0 800.000000 800.000000"
 preserveAspectRatio="xMidYMid meet">

<g transform="translate(0.000000,800.000000) scale(0.100000,-0.100000)"
fill="#000000" stroke="none">
<path d="M2780 7320 c-910 -41 -1327 -168 -1646 -501 -302 -317 -417 -729
-454 -1634 -13 -324 -13 -2046 0 -2370 38 -937 161 -1351 494 -1673 274 -265
631 -389 1271 -441 316 -26 713 -33 1740 -28 661 3 1122 9 1225 16 758 54
1124 171 1415 452 335 325 457 738 495 1684 13 322 13 2037 0 2350 -39 949
-160 1359 -495 1684 -290 281 -646 395 -1410 452 -181 14 -2360 21 -2635 9z
m240 -1265 c7 -8 23 -15 36 -15 12 0 26 -4 29 -10 3 -5 24 -10 46 -10 21 0 39
-4 39 -10 0 -5 9 -10 20 -10 11 0 20 -4 20 -10 0 -5 8 -10 18 -10 11 0 27 -9
37 -20 10 -11 23 -20 30 -20 6 0 26 -16 45 -35 19 -19 38 -35 44 -35 5 0 22
-12 37 -26 15 -15 38 -32 51 -38 12 -6 28 -22 34 -35 7 -13 34 -46 61 -75 28
-28 57 -67 66 -87 9 -20 23 -42 32 -49 17 -14 45 -67 45 -87 0 -7 5 -13 10
-13 6 0 10 -7 10 -15 0 -8 9 -30 20 -50 11 -20 20 -44 20 -55 0 -10 5 -22 10
-25 6 -3 10 -19 10 -36 0 -16 5 -29 10 -29 6 0 10 -17 10 -39 0 -22 6 -44 15
-51 8 -7 15 -27 15 -46 0 -18 5 -36 10 -39 6 -3 10 -33 10 -65 0 -32 5 -62 10
-65 6 -3 10 -42 10 -85 0 -43 5 -82 10 -85 6 -4 10 -55 10 -120 0 -65 4 -116
10 -120 6 -4 10 -98 10 -250 0 -152 -4 -246 -10 -250 -6 -4 -10 -65 -10 -150
0 -85 -4 -146 -10 -150 -5 -3 -10 -46 -10 -95 0 -49 -5 -92 -10 -95 -6 -3 -10
-37 -10 -75 0 -38 -4 -72 -10 -75 -5 -3 -10 -32 -10 -64 0 -40 -5 -63 -15 -71
-10 -8 -15 -30 -15 -61 0 -27 -4 -49 -10 -49 -5 0 -10 -22 -10 -49 0 -28 -4
-53 -10 -56 -5 -3 -10 -28 -10 -55 0 -27 -4 -52 -10 -55 -5 -3 -10 -28 -10
-56 0 -27 -4 -49 -10 -49 -5 0 -10 -13 -10 -29 0 -17 -5 -33 -10 -36 -6 -3
-10 -17 -10 -30 0 -13 -5 -27 -10 -30 -6 -3 -10 -28 -10 -55 0 -34 -5 -52 -16
-58 -21 -12 -15 -56 9 -60 12 -3 17 3 17 21 0 14 7 30 15 37 9 7 15 29 15 51
0 21 5 41 10 44 6 3 10 24 10 46 0 21 5 39 10 39 6 0 10 20 10 45 0 26 8 59
20 80 11 20 20 51 20 70 0 18 5 37 10 40 6 3 10 17 10 29 0 13 7 29 15 36 8 7
15 23 15 36 0 12 4 26 10 29 5 3 10 19 10 36 0 16 5 29 10 29 6 0 10 13 10 29
0 17 4 33 10 36 6 3 10 17 10 30 0 13 5 27 10 30 6 3 10 19 10 36 0 16 5 29
10 29 6 0 10 6 10 13 0 18 28 75 41 82 5 4 9 15 9 25 0 11 9 35 20 55 11 20
20 42 20 50 0 8 5 15 10 15 6 0 10 9 10 20 0 11 5 20 10 20 6 0 10 13 10 28 0
16 9 37 20 47 20 18 70 110 70 130 0 6 9 17 20 25 11 8 20 21 20 30 0 8 11 24
25 34 14 10 25 27 25 37 0 10 9 24 20 31 11 7 20 20 20 29 0 8 14 28 30 44 17
16 30 33 30 39 0 14 312 326 325 326 6 0 26 16 45 35 19 19 39 35 44 35 6 0
25 14 43 30 18 17 39 30 47 30 9 0 16 5 16 10 0 6 6 10 13 10 14 0 90 38 142
70 17 10 42 19 58 19 15 1 27 6 27 11 0 6 11 10 25 10 13 0 40 9 60 20 21 12
54 20 80 20 25 0 45 5 45 10 0 6 58 10 155 10 97 0 155 -4 155 -10 0 -5 23
-10 51 -10 42 0 52 -3 56 -20 4 -14 14 -20 32 -20 15 0 31 -8 39 -20 7 -11 19
-20 27 -20 19 0 115 -95 115 -113 0 -8 7 -21 16 -28 9 -7 20 -22 25 -34 6 -11
23 -42 38 -70 16 -27 30 -62 30 -77 1 -16 6 -28 11 -28 6 0 10 -50 10 -130 0
-80 -4 -130 -10 -130 -5 0 -10 -13 -10 -29 0 -17 -4 -33 -10 -36 -5 -3 -10
-17 -10 -30 0 -13 -4 -27 -10 -30 -5 -3 -10 -17 -10 -29 0 -13 -7 -29 -15 -36
-8 -7 -15 -21 -15 -31 0 -11 -4 -19 -10 -19 -5 0 -10 -9 -10 -20 0 -11 -4 -20
-10 -20 -5 0 -10 -8 -10 -18 0 -11 -9 -27 -20 -37 -11 -10 -20 -23 -20 -30 0
-6 -11 -22 -25 -35 -14 -13 -25 -29 -25 -35 0 -7 -9 -20 -20 -30 -11 -10 -20
-23 -20 -29 0 -14 -271 -286 -286 -286 -6 0 -21 -12 -35 -26 -13 -14 -42 -34
-64 -44 -22 -10 -53 -32 -69 -49 -17 -17 -38 -31 -48 -31 -10 0 -18 -4 -18
-10 0 -5 -8 -10 -18 -10 -10 0 -24 -9 -32 -20 -8 -11 -19 -20 -25 -20 -11 0
-73 -31 -160 -80 -27 -15 -58 -29 -67 -29 -10 -1 -18 -5 -18 -11 0 -5 -9 -10
-19 -10 -11 0 -23 -4 -26 -10 -3 -5 -14 -10 -24 -10 -18 0 -51 -15 -106 -50
-16 -10 -38 -19 -47 -19 -10 -1 -18 -5 -18 -11 0 -5 -11 -10 -25 -10 -13 0
-40 -9 -60 -20 -20 -11 -44 -20 -55 -20 -10 0 -22 -4 -25 -10 -3 -5 -15 -10
-26 -10 -10 0 -19 -4 -19 -10 0 -5 -9 -10 -20 -10 -11 0 -23 -7 -26 -15 -4 -8
-19 -15 -34 -15 -16 0 -32 -4 -35 -10 -3 -5 -15 -10 -25 -10 -11 0 -35 -9 -55
-20 -20 -11 -47 -20 -60 -20 -14 0 -25 -4 -25 -10 0 -5 -9 -10 -19 -10 -11 0
-23 -4 -26 -10 -3 -5 -17 -10 -30 -10 -13 0 -26 -4 -30 -9 -7 -13 -64 -41 -82
-41 -7 0 -13 -4 -13 -10 0 -5 -10 -10 -23 -10 -26 0 -77 -21 -77 -32 0 -5 14
-8 30 -8 17 0 30 -4 30 -10 0 -6 41 -10 104 -10 59 0 108 -4 111 -10 3 -5 33
-10 65 -10 32 0 62 -4 65 -10 3 -5 21 -10 39 -10 19 0 39 -7 46 -15 7 -9 29
-15 51 -15 22 0 39 -4 39 -10 0 -5 13 -10 29 -10 17 0 33 -4 36 -10 3 -5 24
-10 46 -10 21 0 39 -4 39 -10 0 -5 13 -10 29 -10 17 0 33 -4 36 -10 3 -5 17
-10 30 -10 13 0 27 -4 30 -10 3 -5 13 -10 22 -10 22 0 93 -32 93 -42 0 -4 13
-8 29 -8 17 0 33 -4 36 -10 3 -6 15 -10 25 -10 11 0 35 -9 55 -20 20 -11 42
-20 50 -20 8 0 15 -4 15 -10 0 -5 9 -10 19 -10 11 0 23 -4 26 -10 3 -5 17 -10
30 -10 13 0 27 -5 30 -10 3 -6 25 -19 49 -30 23 -10 49 -26 56 -35 11 -13 8
-15 -24 -15 -20 0 -36 5 -36 10 0 6 -9 10 -19 10 -11 0 -23 5 -26 10 -3 6 -17
10 -30 10 -13 0 -27 5 -30 10 -3 6 -24 10 -46 10 -21 0 -39 5 -39 10 0 6 -18
10 -39 10 -22 0 -43 5 -46 10 -3 5 -21 10 -40 10 -18 0 -40 7 -49 15 -8 9 -33
15 -60 15 -25 0 -48 5 -51 10 -3 6 -48 10 -101 10 -56 0 -94 4 -94 10 0 6 -48
10 -124 10 -73 0 -127 4 -131 10 -8 14 -625 14 -625 0 0 -6 -53 -10 -140 -10
-87 0 -140 -4 -140 -10 0 -6 -38 -10 -94 -10 -53 0 -98 -4 -101 -10 -3 -5 -26
-10 -49 -10 -27 0 -48 -6 -56 -15 -8 -10 -31 -15 -71 -15 -32 0 -61 -4 -64
-10 -3 -5 -28 -10 -55 -10 -27 0 -52 -4 -55 -10 -3 -5 -21 -10 -40 -10 -19 0
-37 -5 -40 -10 -3 -6 -24 -10 -45 -10 -21 0 -42 -4 -45 -10 -3 -5 -17 -10 -30
-10 -13 0 -27 -5 -30 -10 -3 -5 -17 -10 -30 -10 -13 0 -27 -4 -30 -10 -3 -5
-19 -10 -34 -10 -16 0 -34 -7 -41 -15 -7 -8 -27 -15 -46 -15 -18 0 -36 -4 -39
-10 -3 -5 -19 -10 -36 -10 -16 0 -29 -4 -29 -10 0 -5 -9 -10 -20 -10 -11 0
-20 -4 -20 -10 0 -5 -13 -10 -29 -10 -17 0 -33 -4 -36 -10 -6 -10 -45 -14 -45
-4 0 11 29 34 43 34 8 0 20 7 27 15 7 8 18 15 25 15 7 0 18 7 25 15 13 16 149
85 168 85 6 0 12 5 12 10 0 6 9 10 20 10 11 0 23 7 26 15 4 8 12 15 18 15 7 0
57 23 111 50 54 28 104 50 111 50 6 0 14 7 18 15 3 8 14 15 25 15 11 0 23 5
26 10 3 6 17 10 30 10 13 0 27 5 30 10 3 6 17 10 30 10 13 0 27 5 30 10 3 5
15 10 26 10 10 0 19 5 19 10 0 6 13 10 29 10 17 0 33 5 36 10 3 5 17 10 30 10
13 0 27 5 30 10 3 6 24 10 46 10 26 0 42 5 45 15 4 9 19 15 35 15 16 0 29 5
29 12 0 15 -30 48 -44 48 -7 0 -36 25 -66 55 -30 30 -60 55 -67 55 -7 0 -13 7
-13 15 0 9 -8 18 -17 22 -23 7 -333 314 -333 328 0 6 -20 31 -45 55 -25 24
-45 49 -45 55 0 6 -13 24 -30 40 -16 16 -30 34 -30 40 0 7 -9 20 -20 30 -11
10 -20 25 -20 33 0 8 -11 23 -25 34 -14 11 -25 27 -25 37 0 9 -9 23 -20 31
-11 8 -20 21 -20 29 0 8 -7 23 -16 33 -17 17 -44 65 -83 144 -11 22 -27 47
-36 54 -8 7 -15 25 -15 41 0 16 -4 29 -10 29 -5 0 -10 6 -10 13 0 14 -18 50
-50 102 -10 17 -19 42 -19 58 -1 15 -5 27 -11 27 -5 0 -10 9 -10 20 0 11 -4
20 -10 20 -5 0 -10 13 -10 29 0 17 -4 33 -10 36 -5 3 -10 17 -10 30 0 13 -4
27 -10 30 -5 3 -10 19 -10 36 0 16 -4 29 -10 29 -5 0 -10 13 -10 29 0 16 -7
34 -15 41 -8 7 -15 27 -15 46 0 18 -4 36 -10 39 -5 3 -10 24 -10 45 0 21 -4
42 -10 45 -5 3 -10 33 -10 66 0 33 -4 59 -10 59 -5 0 -10 22 -10 49 0 28 -4
53 -10 56 -5 3 -10 42 -10 85 0 43 -4 82 -10 85 -6 4 -10 92 -10 230 0 138 4
226 10 230 6 3 10 37 10 75 0 38 5 72 10 75 6 3 10 24 10 45 0 21 5 42 10 45
6 3 10 19 10 35 0 16 9 45 20 65 11 20 20 46 20 60 0 13 11 32 25 43 14 11 25
25 25 31 0 6 6 21 12 34 18 31 170 187 183 187 6 0 24 14 40 30 19 19 39 30
57 30 15 0 28 5 28 10 0 6 7 10 15 10 8 0 30 9 50 20 20 12 54 20 79 20 30 0
46 5 50 15 4 12 29 15 139 15 107 0 137 -3 147 -15z"/>
</g>
</svg>
