<?xml version="1.0" standalone="no"?>
<!DOCTYPE svg PUBLIC "-//W3C//DTD SVG 20010904//EN"
 "http://www.w3.org/TR/2001/REC-SVG-20010904/DTD/svg10.dtd">
<svg version="1.0" xmlns="http://www.w3.org/2000/svg"
 width="300.000000pt" height="300.000000pt" viewBox="0 0 300.000000 300.000000"
 preserveAspectRatio="xMidYMid meet">
<metadata>
Created by potrace 1.10, written by Peter Selinger 2001-2011
</metadata>
<g transform="translate(0.000000,300.000000) scale(0.050000,-0.050000)"
fill="#E5E5E4" stroke="none">
<path d="M1566 5371 c-875 -200 -1240 -1181 -721 -1936 190 -276 190 -607 -1
-887 -795 -1164 556 -2501 1721 -1704 275 188 593 186 885 -6 1193 -787 2546
619 1682 1750 -169 223 -159 610 23 854 530 711 136 1746 -735 1930 -287 61
-642 0 -874 -149 -226 -145 -269 -166 -389 -185 -214 -36 -453 9 -586 109
-276 208 -680 298 -1005 224z m1844 -951 c1106 -347 1434 -1716 599 -2498
-842 -788 -2222 -346 -2459 788 -223 1066 830 2033 1860 1710z"/>
<path d="M2711 3858 c-963 -331 -729 -1758 289 -1758 778 0 1180 872 687 1493
-207 261 -643 379 -976 265z"/>
</g>
</svg>
